<mxfile host="app.diagrams.net" modified="2021-07-01T18:56:52.802Z" agent="5.0 (Windows NT 10.0; Win64; x64) AppleWebKit/537.36 (KHTML, like Gecko) Chrome/91.0.4472.124 Safari/537.36" etag="d2IqsXhCNgR1qYfumDKn" version="14.8.3" type="github">
  <diagram id="txi2YaepdJMHssst4SGv" name="Page-1">
    <mxGraphModel dx="1078" dy="854" grid="1" gridSize="10" guides="1" tooltips="1" connect="1" arrows="1" fold="1" page="1" pageScale="1" pageWidth="827" pageHeight="1169" math="0" shadow="0">
      <root>
        <mxCell id="0" />
        <mxCell id="1" parent="0" />
        <mxCell id="Lu7zV6Tx2Fdpjb5Isjd1-1" value="Program View Service" style="swimlane;fontSize=12;fontStyle=1;fillColor=#f8cecc;strokeColor=#b85450;" vertex="1" parent="1">
          <mxGeometry x="284.5" y="150" width="160" height="80" as="geometry" />
        </mxCell>
        <mxCell id="Lu7zV6Tx2Fdpjb5Isjd1-2" value="조회 서비스" style="text;html=1;align=center;verticalAlign=middle;resizable=0;points=[];autosize=1;fontSize=12;fontStyle=1;" vertex="1" parent="Lu7zV6Tx2Fdpjb5Isjd1-1">
          <mxGeometry x="40" y="41" width="80" height="20" as="geometry" />
        </mxCell>
        <mxCell id="Lu7zV6Tx2Fdpjb5Isjd1-3" value="클라이언트" style="swimlane;fontSize=13;fontStyle=1;fillColor=#f8cecc;strokeColor=#b85450;" vertex="1" parent="1">
          <mxGeometry x="50" y="150" width="140" height="80" as="geometry" />
        </mxCell>
        <mxCell id="Lu7zV6Tx2Fdpjb5Isjd1-4" value="단건 조회 요청" style="text;html=1;align=center;verticalAlign=middle;resizable=0;points=[];autosize=1;fontSize=12;fontStyle=1;" vertex="1" parent="Lu7zV6Tx2Fdpjb5Isjd1-3">
          <mxGeometry x="26" y="41" width="90" height="20" as="geometry" />
        </mxCell>
        <mxCell id="Lu7zV6Tx2Fdpjb5Isjd1-5" value="Program Repository" style="swimlane;fontSize=12;fontStyle=1;fillColor=#f8cecc;strokeColor=#b85450;" vertex="1" parent="1">
          <mxGeometry x="545" y="150" width="150" height="80" as="geometry" />
        </mxCell>
        <mxCell id="Lu7zV6Tx2Fdpjb5Isjd1-6" value="&lt;font style=&quot;font-size: 12px&quot;&gt;프로그램 저장소&lt;/font&gt;" style="text;html=1;align=center;verticalAlign=middle;resizable=0;points=[];autosize=1;fontSize=12;fontStyle=1;" vertex="1" parent="Lu7zV6Tx2Fdpjb5Isjd1-5">
          <mxGeometry x="28" y="41" width="100" height="20" as="geometry" />
        </mxCell>
        <mxCell id="Lu7zV6Tx2Fdpjb5Isjd1-7" value="&lt;font style=&quot;font-size: 11px&quot;&gt;Program &lt;/font&gt;&lt;font style=&quot;font-size: 11px&quot;&gt;id&lt;/font&gt;&lt;font style=&quot;font-size: 11px&quot;&gt;&amp;nbsp;&amp;nbsp;&lt;/font&gt;" style="text;html=1;align=center;verticalAlign=middle;whiteSpace=wrap;rounded=0;fontSize=11;fontStyle=1" vertex="1" parent="1">
          <mxGeometry x="177.5" y="171" width="126" height="10" as="geometry" />
        </mxCell>
        <mxCell id="Lu7zV6Tx2Fdpjb5Isjd1-8" value="Program View Detail DTO" style="swimlane;fontSize=12;fontStyle=1;fillColor=#f8cecc;strokeColor=#b85450;" vertex="1" parent="1">
          <mxGeometry x="280" y="320" width="181.5" height="200" as="geometry" />
        </mxCell>
        <mxCell id="Lu7zV6Tx2Fdpjb5Isjd1-9" value="&lt;font style=&quot;font-size: 12px&quot;&gt;데이터 전달 객체&lt;/font&gt;" style="text;html=1;align=center;verticalAlign=middle;resizable=0;points=[];autosize=1;fontSize=12;fontStyle=1;" vertex="1" parent="Lu7zV6Tx2Fdpjb5Isjd1-8">
          <mxGeometry x="28.75" y="40" width="110" height="20" as="geometry" />
        </mxCell>
        <mxCell id="Lu7zV6Tx2Fdpjb5Isjd1-10" value="id" style="text;html=1;strokeColor=none;fillColor=none;align=center;verticalAlign=middle;whiteSpace=wrap;rounded=0;fontSize=13;" vertex="1" parent="Lu7zV6Tx2Fdpjb5Isjd1-8">
          <mxGeometry x="28.75" y="70" width="40" height="20" as="geometry" />
        </mxCell>
        <mxCell id="Lu7zV6Tx2Fdpjb5Isjd1-11" value="introduction" style="text;html=1;strokeColor=none;fillColor=none;align=center;verticalAlign=middle;whiteSpace=wrap;rounded=0;fontSize=13;" vertex="1" parent="Lu7zV6Tx2Fdpjb5Isjd1-8">
          <mxGeometry x="55.75" y="111" width="40" height="20" as="geometry" />
        </mxCell>
        <mxCell id="Lu7zV6Tx2Fdpjb5Isjd1-12" value="introductionDetail" style="text;html=1;strokeColor=none;fillColor=none;align=center;verticalAlign=middle;whiteSpace=wrap;rounded=0;fontSize=13;" vertex="1" parent="Lu7zV6Tx2Fdpjb5Isjd1-8">
          <mxGeometry x="71.75" y="132" width="40" height="20" as="geometry" />
        </mxCell>
        <mxCell id="Lu7zV6Tx2Fdpjb5Isjd1-13" value="region" style="text;html=1;strokeColor=none;fillColor=none;align=center;verticalAlign=middle;whiteSpace=wrap;rounded=0;fontSize=13;" vertex="1" parent="Lu7zV6Tx2Fdpjb5Isjd1-8">
          <mxGeometry x="40.75" y="152" width="40" height="20" as="geometry" />
        </mxCell>
        <mxCell id="Lu7zV6Tx2Fdpjb5Isjd1-14" value="name" style="text;html=1;strokeColor=none;fillColor=none;align=center;verticalAlign=middle;whiteSpace=wrap;rounded=0;fontSize=13;" vertex="1" parent="Lu7zV6Tx2Fdpjb5Isjd1-8">
          <mxGeometry x="38.75" y="90" width="40" height="20" as="geometry" />
        </mxCell>
        <mxCell id="Lu7zV6Tx2Fdpjb5Isjd1-15" value="&lt;span style=&quot;font-size: 12px&quot;&gt;&lt;font style=&quot;font-size: 12px&quot;&gt;getBy( id )&lt;/font&gt;&lt;/span&gt;" style="text;html=1;strokeColor=none;fillColor=none;align=center;verticalAlign=middle;whiteSpace=wrap;rounded=0;fontSize=12;fontStyle=1" vertex="1" parent="1">
          <mxGeometry x="452.5" y="171" width="80" height="17.5" as="geometry" />
        </mxCell>
        <mxCell id="Lu7zV6Tx2Fdpjb5Isjd1-16" value="" style="edgeStyle=segmentEdgeStyle;endArrow=classic;html=1;fontSize=15;" edge="1" parent="1">
          <mxGeometry width="50" height="50" relative="1" as="geometry">
            <mxPoint x="674" y="150" as="sourcePoint" />
            <mxPoint x="674" y="230" as="targetPoint" />
            <Array as="points">
              <mxPoint x="674" y="130" />
              <mxPoint x="734" y="130" />
              <mxPoint x="734" y="250" />
              <mxPoint x="674" y="250" />
            </Array>
          </mxGeometry>
        </mxCell>
        <mxCell id="Lu7zV6Tx2Fdpjb5Isjd1-17" value="&lt;b style=&quot;font-size: 12px;&quot;&gt;&lt;font style=&quot;font-size: 12px;&quot;&gt;findById( id )&lt;/font&gt;&lt;/b&gt;" style="text;html=1;strokeColor=none;fillColor=none;align=center;verticalAlign=middle;whiteSpace=wrap;rounded=0;fontSize=12;" vertex="1" parent="1">
          <mxGeometry x="637" y="250" width="90" height="27.5" as="geometry" />
        </mxCell>
        <mxCell id="Lu7zV6Tx2Fdpjb5Isjd1-18" value="Program" style="swimlane;fontSize=12;fontStyle=1;fillColor=#f8cecc;strokeColor=#b85450;" vertex="1" parent="1">
          <mxGeometry x="547.75" y="320" width="150" height="200" as="geometry" />
        </mxCell>
        <mxCell id="Lu7zV6Tx2Fdpjb5Isjd1-19" value="&lt;font style=&quot;font-size: 12px&quot;&gt;프로그램&amp;nbsp; 객체&lt;/font&gt;" style="text;html=1;align=center;verticalAlign=middle;resizable=0;points=[];autosize=1;fontSize=12;fontStyle=1;" vertex="1" parent="Lu7zV6Tx2Fdpjb5Isjd1-18">
          <mxGeometry x="30" y="40" width="90" height="20" as="geometry" />
        </mxCell>
        <mxCell id="Lu7zV6Tx2Fdpjb5Isjd1-20" value="id" style="text;html=1;strokeColor=none;fillColor=none;align=center;verticalAlign=middle;whiteSpace=wrap;rounded=0;fontSize=13;" vertex="1" parent="Lu7zV6Tx2Fdpjb5Isjd1-18">
          <mxGeometry x="22.25" y="60.5" width="40" height="20" as="geometry" />
        </mxCell>
        <mxCell id="Lu7zV6Tx2Fdpjb5Isjd1-21" value="introduction" style="text;html=1;strokeColor=none;fillColor=none;align=center;verticalAlign=middle;whiteSpace=wrap;rounded=0;fontSize=13;" vertex="1" parent="Lu7zV6Tx2Fdpjb5Isjd1-18">
          <mxGeometry x="49.25" y="101.5" width="40" height="20" as="geometry" />
        </mxCell>
        <mxCell id="Lu7zV6Tx2Fdpjb5Isjd1-22" value="introductionDetail" style="text;html=1;strokeColor=none;fillColor=none;align=center;verticalAlign=middle;whiteSpace=wrap;rounded=0;fontSize=13;" vertex="1" parent="Lu7zV6Tx2Fdpjb5Isjd1-18">
          <mxGeometry x="65.25" y="122.5" width="40" height="20" as="geometry" />
        </mxCell>
        <mxCell id="Lu7zV6Tx2Fdpjb5Isjd1-23" value="region" style="text;html=1;strokeColor=none;fillColor=none;align=center;verticalAlign=middle;whiteSpace=wrap;rounded=0;fontSize=13;" vertex="1" parent="Lu7zV6Tx2Fdpjb5Isjd1-18">
          <mxGeometry x="34.25" y="142.5" width="40" height="20" as="geometry" />
        </mxCell>
        <mxCell id="Lu7zV6Tx2Fdpjb5Isjd1-24" value="name" style="text;html=1;strokeColor=none;fillColor=none;align=center;verticalAlign=middle;whiteSpace=wrap;rounded=0;fontSize=13;" vertex="1" parent="Lu7zV6Tx2Fdpjb5Isjd1-18">
          <mxGeometry x="32.25" y="80.5" width="40" height="20" as="geometry" />
        </mxCell>
        <mxCell id="Lu7zV6Tx2Fdpjb5Isjd1-25" value="theme" style="text;html=1;strokeColor=none;fillColor=none;align=center;verticalAlign=middle;whiteSpace=wrap;rounded=0;fontSize=13;fontColor=#FF0000;" vertex="1" parent="Lu7zV6Tx2Fdpjb5Isjd1-18">
          <mxGeometry x="34.25" y="164.5" width="40" height="20" as="geometry" />
        </mxCell>
        <mxCell id="Lu7zV6Tx2Fdpjb5Isjd1-26" value="&lt;b style=&quot;font-size: 8px;&quot;&gt;&lt;font style=&quot;font-size: 8px;&quot;&gt;getter&lt;/font&gt;&lt;/b&gt;" style="text;html=1;strokeColor=none;fillColor=none;align=center;verticalAlign=middle;whiteSpace=wrap;rounded=0;fontSize=8;" vertex="1" parent="Lu7zV6Tx2Fdpjb5Isjd1-18">
          <mxGeometry x="-70" y="113.75" width="80" height="17.5" as="geometry" />
        </mxCell>
        <mxCell id="Lu7zV6Tx2Fdpjb5Isjd1-27" value="" style="endArrow=none;dashed=1;html=1;fontSize=9;fontColor=#FF0000;" edge="1" parent="1">
          <mxGeometry width="50" height="50" relative="1" as="geometry">
            <mxPoint x="620.21" y="302.5" as="sourcePoint" />
            <mxPoint x="619.96" y="243.75" as="targetPoint" />
            <Array as="points">
              <mxPoint x="619.71" y="292.5" />
            </Array>
          </mxGeometry>
        </mxCell>
        <mxCell id="Lu7zV6Tx2Fdpjb5Isjd1-28" value="" style="endArrow=classic;html=1;fontSize=9;fontColor=#FF0000;" edge="1" parent="1">
          <mxGeometry relative="1" as="geometry">
            <mxPoint x="200" y="197.5" as="sourcePoint" />
            <mxPoint x="280" y="197.5" as="targetPoint" />
          </mxGeometry>
        </mxCell>
        <mxCell id="Lu7zV6Tx2Fdpjb5Isjd1-29" value="" style="endArrow=classic;html=1;fontSize=9;fontColor=#FF0000;" edge="1" parent="1">
          <mxGeometry relative="1" as="geometry">
            <mxPoint x="458" y="196.50000000000023" as="sourcePoint" />
            <mxPoint x="538" y="196.50000000000023" as="targetPoint" />
          </mxGeometry>
        </mxCell>
        <mxCell id="Lu7zV6Tx2Fdpjb5Isjd1-30" value="" style="endArrow=none;dashed=1;html=1;fontSize=12;fontColor=#FF0000;" edge="1" parent="1">
          <mxGeometry width="50" height="50" relative="1" as="geometry">
            <mxPoint x="480.75" y="411.25" as="sourcePoint" />
            <mxPoint x="537.75" y="410.9999999999998" as="targetPoint" />
          </mxGeometry>
        </mxCell>
        <mxCell id="Lu7zV6Tx2Fdpjb5Isjd1-31" value="" style="edgeStyle=segmentEdgeStyle;endArrow=classic;html=1;fontSize=8;fontColor=#FF0000;" edge="1" parent="1">
          <mxGeometry width="50" height="50" relative="1" as="geometry">
            <mxPoint x="619.8900000000001" y="293.75" as="sourcePoint" />
            <mxPoint x="619.8900000000001" y="303.75" as="targetPoint" />
          </mxGeometry>
        </mxCell>
        <mxCell id="Lu7zV6Tx2Fdpjb5Isjd1-32" value="" style="edgeStyle=segmentEdgeStyle;endArrow=classic;html=1;fontSize=3;fontColor=#FF0000;" edge="1" parent="1">
          <mxGeometry width="50" height="50" relative="1" as="geometry">
            <mxPoint x="477.75" y="411.25" as="sourcePoint" />
            <mxPoint x="467.75" y="411.25" as="targetPoint" />
          </mxGeometry>
        </mxCell>
        <mxCell id="Lu7zV6Tx2Fdpjb5Isjd1-33" value="&lt;font style=&quot;font-size: 12px&quot;&gt;new&lt;/font&gt;" style="text;html=1;strokeColor=none;fillColor=none;align=center;verticalAlign=middle;whiteSpace=wrap;rounded=0;fontSize=11;fontStyle=1;" vertex="1" parent="1">
          <mxGeometry x="461.5" y="390" width="80" height="17.5" as="geometry" />
        </mxCell>
        <mxCell id="Lu7zV6Tx2Fdpjb5Isjd1-34" value="&lt;span style=&quot;font-size: 10px&quot;&gt;&lt;font style=&quot;font-size: 10px&quot;&gt;program&lt;/font&gt;&lt;/span&gt;" style="text;html=1;strokeColor=none;fillColor=none;align=center;verticalAlign=middle;whiteSpace=wrap;rounded=0;fontSize=10;fontStyle=1" vertex="1" parent="1">
          <mxGeometry x="461.5" y="420" width="80" height="17.5" as="geometry" />
        </mxCell>
        <mxCell id="Lu7zV6Tx2Fdpjb5Isjd1-35" value="" style="endArrow=none;dashed=1;html=1;fontSize=9;fontColor=#FF0000;" edge="1" parent="1">
          <mxGeometry width="50" height="50" relative="1" as="geometry">
            <mxPoint x="360" y="303.88" as="sourcePoint" />
            <mxPoint x="360.0000000000002" y="253.63" as="targetPoint" />
            <Array as="points">
              <mxPoint x="360" y="303.63" />
            </Array>
          </mxGeometry>
        </mxCell>
        <mxCell id="Lu7zV6Tx2Fdpjb5Isjd1-36" value="" style="endArrow=classic;html=1;fontSize=11;fontColor=#FF0000;" edge="1" parent="1">
          <mxGeometry width="50" height="50" relative="1" as="geometry">
            <mxPoint x="359.99999999999994" y="253.63" as="sourcePoint" />
            <mxPoint x="359.99999999999994" y="243.63" as="targetPoint" />
          </mxGeometry>
        </mxCell>
        <mxCell id="Lu7zV6Tx2Fdpjb5Isjd1-37" value="Program 조회 View - 테마 이름 추가&amp;nbsp;" style="rounded=0;whiteSpace=wrap;html=1;fontSize=16;fontStyle=1;" vertex="1" parent="1">
          <mxGeometry x="228" y="20" width="370" height="60" as="geometry" />
        </mxCell>
        <mxCell id="Lu7zV6Tx2Fdpjb5Isjd1-39" value="" style="endArrow=none;dashed=1;html=1;dashPattern=1 3;strokeWidth=2;fontSize=16;" edge="1" parent="1">
          <mxGeometry width="50" height="50" relative="1" as="geometry">
            <mxPoint x="210.5" y="210" as="sourcePoint" />
            <mxPoint x="268.5" y="210" as="targetPoint" />
          </mxGeometry>
        </mxCell>
        <mxCell id="Lu7zV6Tx2Fdpjb5Isjd1-40" value="" style="endArrow=classic;html=1;fontSize=16;" edge="1" parent="1">
          <mxGeometry width="50" height="50" relative="1" as="geometry">
            <mxPoint x="210.5" y="210" as="sourcePoint" />
            <mxPoint x="200.5" y="210" as="targetPoint" />
          </mxGeometry>
        </mxCell>
        <mxCell id="Lu7zV6Tx2Fdpjb5Isjd1-41" value="Response" style="text;html=1;align=center;verticalAlign=middle;whiteSpace=wrap;rounded=0;fontSize=11;fontStyle=1" vertex="1" parent="1">
          <mxGeometry x="220.5" y="220" width="40" height="20" as="geometry" />
        </mxCell>
        <mxCell id="Lu7zV6Tx2Fdpjb5Isjd1-42" value="&lt;font style=&quot;font-size: 9px ; font-weight: normal&quot;&gt;(&lt;font style=&quot;font-size: 9px&quot;&gt;DTO&lt;/font&gt;)&lt;/font&gt;" style="text;html=1;align=center;verticalAlign=middle;whiteSpace=wrap;rounded=0;fontSize=6;fontStyle=1" vertex="1" parent="1">
          <mxGeometry x="230" y="240" width="40" height="10" as="geometry" />
        </mxCell>
        <mxCell id="Lu7zV6Tx2Fdpjb5Isjd1-44" value="&lt;span style=&quot;font-weight: normal&quot;&gt;&lt;font style=&quot;font-size: 9px&quot;&gt;(DTO)&lt;/font&gt;&lt;/span&gt;" style="text;html=1;align=center;verticalAlign=middle;whiteSpace=wrap;rounded=0;fontSize=10;fontStyle=1" vertex="1" parent="1">
          <mxGeometry x="366.2" y="283.75" width="40" height="6.25" as="geometry" />
        </mxCell>
        <mxCell id="Lu7zV6Tx2Fdpjb5Isjd1-50" value="" style="endArrow=none;dashed=1;html=1;dashPattern=1 3;strokeWidth=2;labelBackgroundColor=#FF3333;fontSize=6;fontColor=#FF0000;" edge="1" parent="1">
          <mxGeometry width="50" height="50" relative="1" as="geometry">
            <mxPoint x="607" y="530" as="sourcePoint" />
            <mxPoint x="370" y="540" as="targetPoint" />
            <Array as="points">
              <mxPoint x="607" y="565" />
              <mxPoint x="370" y="565" />
            </Array>
          </mxGeometry>
        </mxCell>
        <mxCell id="Lu7zV6Tx2Fdpjb5Isjd1-53" value="" style="endArrow=classic;html=1;labelBackgroundColor=#FF3333;fontSize=6;fontColor=#FF0000;" edge="1" parent="1">
          <mxGeometry width="50" height="50" relative="1" as="geometry">
            <mxPoint x="370" y="540" as="sourcePoint" />
            <mxPoint x="370" y="530" as="targetPoint" />
          </mxGeometry>
        </mxCell>
        <mxCell id="Lu7zV6Tx2Fdpjb5Isjd1-54" value="&lt;font style=&quot;font-size: 13px&quot;&gt;&lt;font style=&quot;font-size: 13px&quot;&gt;&lt;b&gt;&lt;font style=&quot;font-size: 13px&quot;&gt;수정 내용 개요&lt;/font&gt;&lt;br&gt;&lt;/b&gt;&lt;/font&gt;&lt;font style=&quot;line-height: 140% ; font-size: 13px&quot;&gt;&lt;br&gt;&lt;font color=&quot;#000000&quot; style=&quot;font-size: 13px&quot;&gt;&lt;font style=&quot;font-size: 13px&quot;&gt;&lt;b&gt;DTO 생성&lt;/b&gt;&lt;/font&gt;&lt;b&gt;시&lt;/b&gt;&lt;/font&gt;&lt;br&gt;&lt;font color=&quot;#000000&quot; style=&quot;font-size: 13px&quot;&gt;Program 객체로 부터&amp;nbsp;&lt;br&gt;누락된 &lt;b&gt;theme 객체&lt;/b&gt;를&lt;br&gt;가져와&lt;br&gt;&amp;nbsp;DTO &lt;b&gt;속성에 추가&lt;/b&gt; 한다&lt;/font&gt;.&amp;nbsp;&lt;/font&gt;&lt;/font&gt;" style="shape=note;size=20;whiteSpace=wrap;html=1;fontSize=6;fontColor=#FF0000;" vertex="1" parent="1">
          <mxGeometry x="50.5" y="330" width="159.5" height="180" as="geometry" />
        </mxCell>
        <mxCell id="Lu7zV6Tx2Fdpjb5Isjd1-55" value="&lt;font style=&quot;font-size: 12px&quot;&gt;theme_name 추가&amp;nbsp;&lt;/font&gt;" style="shape=ext;margin=3;double=1;whiteSpace=wrap;html=1;align=center;fontSize=8;fontColor=#FF0000;fontStyle=1" vertex="1" parent="1">
          <mxGeometry x="427.37" y="600" width="130.25" height="40" as="geometry" />
        </mxCell>
        <mxCell id="Lu7zV6Tx2Fdpjb5Isjd1-69" value="Program View Detail DTO" style="swimlane;fontSize=12;fontStyle=1;fillColor=#f8cecc;strokeColor=#b85450;" vertex="1" parent="1">
          <mxGeometry x="110" y="715" width="180" height="90" as="geometry" />
        </mxCell>
        <mxCell id="Lu7zV6Tx2Fdpjb5Isjd1-70" value="Field 추가 부분" style="text;html=1;align=center;verticalAlign=middle;resizable=0;points=[];autosize=1;fontSize=11;fontStyle=1;" vertex="1" parent="Lu7zV6Tx2Fdpjb5Isjd1-69">
          <mxGeometry x="40" y="35" width="90" height="20" as="geometry" />
        </mxCell>
        <mxCell id="Lu7zV6Tx2Fdpjb5Isjd1-74" value="&lt;b&gt;&lt;font style=&quot;font-size: 13px&quot;&gt;theme_name&lt;/font&gt;&lt;/b&gt;" style="text;html=1;strokeColor=none;fillColor=none;align=center;verticalAlign=middle;whiteSpace=wrap;rounded=0;fontSize=12;fontColor=#FF0000;" vertex="1" parent="Lu7zV6Tx2Fdpjb5Isjd1-69">
          <mxGeometry x="70" y="60" width="40" height="20" as="geometry" />
        </mxCell>
        <mxCell id="Lu7zV6Tx2Fdpjb5Isjd1-78" value="" style="endArrow=none;dashed=1;html=1;fontSize=12;fontColor=#FF0000;" edge="1" parent="1">
          <mxGeometry width="50" height="50" relative="1" as="geometry">
            <mxPoint x="309.75" y="762.5" as="sourcePoint" />
            <mxPoint x="400" y="762.75" as="targetPoint" />
          </mxGeometry>
        </mxCell>
        <mxCell id="Lu7zV6Tx2Fdpjb5Isjd1-79" value="" style="edgeStyle=segmentEdgeStyle;endArrow=classic;html=1;fontSize=3;fontColor=#FF0000;" edge="1" parent="1">
          <mxGeometry width="50" height="50" relative="1" as="geometry">
            <mxPoint x="313.5" y="762.5" as="sourcePoint" />
            <mxPoint x="303.5" y="762.5" as="targetPoint" />
          </mxGeometry>
        </mxCell>
        <mxCell id="Lu7zV6Tx2Fdpjb5Isjd1-80" value="&lt;font style=&quot;font-size: 13px&quot; color=&quot;#ff3333&quot;&gt;new&lt;/font&gt;" style="text;html=1;strokeColor=none;fillColor=none;align=center;verticalAlign=middle;whiteSpace=wrap;rounded=0;fontSize=11;fontStyle=1" vertex="1" parent="1">
          <mxGeometry x="310" y="736.25" width="80" height="17.5" as="geometry" />
        </mxCell>
        <mxCell id="Lu7zV6Tx2Fdpjb5Isjd1-81" value="Program View Service" style="swimlane;fontSize=12;fontStyle=1;fillColor=#f8cecc;strokeColor=#b85450;" vertex="1" parent="1">
          <mxGeometry x="414" y="715" width="180" height="90" as="geometry" />
        </mxCell>
        <mxCell id="Lu7zV6Tx2Fdpjb5Isjd1-82" value="조회 서비스" style="text;html=1;align=center;verticalAlign=middle;resizable=0;points=[];autosize=1;fontSize=11;fontStyle=1;" vertex="1" parent="Lu7zV6Tx2Fdpjb5Isjd1-81">
          <mxGeometry x="55" y="40" width="70" height="20" as="geometry" />
        </mxCell>
        <mxCell id="Lu7zV6Tx2Fdpjb5Isjd1-86" value="" style="edgeStyle=segmentEdgeStyle;endArrow=classic;html=1;fontSize=15;" edge="1" parent="1" source="Lu7zV6Tx2Fdpjb5Isjd1-81" target="Lu7zV6Tx2Fdpjb5Isjd1-93">
          <mxGeometry width="50" height="50" relative="1" as="geometry">
            <mxPoint x="604" y="710" as="sourcePoint" />
            <mxPoint x="550" y="890" as="targetPoint" />
            <Array as="points">
              <mxPoint x="590" y="700" />
              <mxPoint x="664" y="700" />
              <mxPoint x="664" y="900" />
            </Array>
          </mxGeometry>
        </mxCell>
        <mxCell id="Lu7zV6Tx2Fdpjb5Isjd1-88" value="&lt;font style=&quot;font-size: 12px&quot;&gt;Repository&lt;/font&gt;" style="rounded=1;whiteSpace=wrap;html=1;fontSize=8;fontColor=#000000;fontStyle=1" vertex="1" parent="1">
          <mxGeometry x="629" y="727.5" width="71" height="42.5" as="geometry" />
        </mxCell>
        <mxCell id="Lu7zV6Tx2Fdpjb5Isjd1-89" value="&lt;font style=&quot;font-size: 11px&quot;&gt;findById( id )&lt;/font&gt;" style="text;html=1;strokeColor=none;fillColor=none;align=center;verticalAlign=middle;whiteSpace=wrap;rounded=0;fontSize=10;fontStyle=1" vertex="1" parent="1">
          <mxGeometry x="660" y="770" width="90" height="27.5" as="geometry" />
        </mxCell>
        <mxCell id="Lu7zV6Tx2Fdpjb5Isjd1-90" value="&lt;font style=&quot;font-size: 11px&quot;&gt;getBy( id )&lt;/font&gt;" style="text;html=1;strokeColor=none;fillColor=none;align=center;verticalAlign=middle;whiteSpace=wrap;rounded=0;fontSize=10;fontStyle=1" vertex="1" parent="1">
          <mxGeometry x="577.75" y="670" width="90" height="27.5" as="geometry" />
        </mxCell>
        <mxCell id="Lu7zV6Tx2Fdpjb5Isjd1-91" value="&lt;font style=&quot;font-size: 12px&quot;&gt;Program&lt;/font&gt;" style="rounded=1;whiteSpace=wrap;html=1;fontSize=8;fontColor=#000000;fontStyle=1" vertex="1" parent="1">
          <mxGeometry x="629" y="820" width="71" height="40" as="geometry" />
        </mxCell>
        <mxCell id="Lu7zV6Tx2Fdpjb5Isjd1-93" value="&lt;p style=&quot;line-height: 160% ; font-size: 12px&quot;&gt;&lt;font style=&quot;font-size: 12px&quot;&gt;&lt;br&gt;&lt;/font&gt;&lt;/p&gt;&lt;p style=&quot;line-height: 160% ; font-size: 12px&quot;&gt;&lt;font style=&quot;font-size: 12px&quot;&gt;&lt;br&gt;&lt;/font&gt;&lt;/p&gt;&lt;p style=&quot;line-height: 160% ; font-size: 12px&quot;&gt;&lt;font style=&quot;font-size: 12px&quot;&gt;Dependency Injection &lt;b&gt;추가 부분 &lt;/b&gt;&amp;nbsp;&lt;br&gt;String &lt;font color=&quot;#ff9933&quot; style=&quot;font-size: 12px&quot;&gt;&lt;b&gt;theme_name&lt;/b&gt;&lt;/font&gt;&lt;/font&gt;&lt;/p&gt;&lt;p style=&quot;line-height: 160% ; font-size: 12px&quot;&gt;&lt;br&gt;&lt;/p&gt;" style="rounded=1;whiteSpace=wrap;html=1;fontSize=10;fontColor=#000000;" vertex="1" parent="1">
          <mxGeometry x="257.75" y="840" width="290" height="110" as="geometry" />
        </mxCell>
        <mxCell id="Lu7zV6Tx2Fdpjb5Isjd1-94" value="&lt;font style=&quot;font-size: 12px&quot;&gt;Program View Detail DTO&amp;nbsp;&lt;/font&gt;" style="rounded=1;whiteSpace=wrap;html=1;fontSize=10;fontColor=#000000;fontStyle=1" vertex="1" parent="1">
          <mxGeometry x="257.75" y="825" width="290" height="30" as="geometry" />
        </mxCell>
        <mxCell id="Lu7zV6Tx2Fdpjb5Isjd1-95" value="&lt;font style=&quot;font-size: 13px&quot;&gt;&lt;font color=&quot;#000000&quot; style=&quot;font-size: 13px&quot;&gt;program.getTheme().&lt;/font&gt;&lt;font color=&quot;#ff9933&quot; style=&quot;font-size: 13px&quot;&gt;getName()&lt;/font&gt;&lt;/font&gt;" style="text;html=1;strokeColor=none;fillColor=none;align=center;verticalAlign=middle;whiteSpace=wrap;rounded=0;fontSize=11;fontStyle=1;fontColor=#FF0000;" vertex="1" parent="1">
          <mxGeometry x="574" y="900" width="216" height="40" as="geometry" />
        </mxCell>
        <mxCell id="Lu7zV6Tx2Fdpjb5Isjd1-107" value="" style="endArrow=none;dashed=1;html=1;labelBackgroundColor=#FF3333;fontSize=11;fontColor=#FF0000;" edge="1" parent="1">
          <mxGeometry width="50" height="50" relative="1" as="geometry">
            <mxPoint x="470" y="920" as="sourcePoint" />
            <mxPoint x="547.75" y="900" as="targetPoint" />
            <Array as="points">
              <mxPoint x="500.25" y="920" />
              <mxPoint x="510.25" y="900" />
            </Array>
          </mxGeometry>
        </mxCell>
        <mxCell id="Lu7zV6Tx2Fdpjb5Isjd1-108" value="" style="endArrow=classic;html=1;labelBackgroundColor=#FF3333;fontSize=11;fontColor=#FF0000;" edge="1" parent="1">
          <mxGeometry width="50" height="50" relative="1" as="geometry">
            <mxPoint x="466" y="920" as="sourcePoint" />
            <mxPoint x="461.5" y="920" as="targetPoint" />
          </mxGeometry>
        </mxCell>
        <mxCell id="Lu7zV6Tx2Fdpjb5Isjd1-109" value="" style="endArrow=none;dashed=1;html=1;labelBackgroundColor=#FF3333;fontSize=11;fontColor=#FF0000;" edge="1" parent="1">
          <mxGeometry width="50" height="50" relative="1" as="geometry">
            <mxPoint x="340" y="920" as="sourcePoint" />
            <mxPoint x="200" y="820" as="targetPoint" />
            <Array as="points">
              <mxPoint x="200" y="920" />
            </Array>
          </mxGeometry>
        </mxCell>
        <mxCell id="Lu7zV6Tx2Fdpjb5Isjd1-111" value="" style="endArrow=classic;html=1;labelBackgroundColor=#FF3333;fontSize=11;fontColor=#FF0000;" edge="1" parent="1">
          <mxGeometry width="50" height="50" relative="1" as="geometry">
            <mxPoint x="199.88" y="820" as="sourcePoint" />
            <mxPoint x="199.88" y="810" as="targetPoint" />
          </mxGeometry>
        </mxCell>
        <mxCell id="Lu7zV6Tx2Fdpjb5Isjd1-112" value="&lt;font style=&quot;font-size: 13px&quot;&gt;&lt;font color=&quot;#000000&quot; style=&quot;font-size: 13px&quot;&gt;This&lt;/font&gt;.theme_name&amp;nbsp;&amp;nbsp;&lt;/font&gt;" style="text;html=1;strokeColor=none;fillColor=none;align=center;verticalAlign=middle;whiteSpace=wrap;rounded=0;fontSize=11;fontStyle=1;fontColor=#FF0000;" vertex="1" parent="1">
          <mxGeometry x="80" y="890" width="111.25" height="40" as="geometry" />
        </mxCell>
        <mxCell id="Lu7zV6Tx2Fdpjb5Isjd1-115" value="&lt;font style=&quot;font-size: 13px&quot;&gt;&lt;font color=&quot;#ff8000&quot; style=&quot;font-size: 13px&quot;&gt;=&lt;/font&gt; &lt;font color=&quot;#ff9933&quot; style=&quot;font-size: 13px&quot;&gt;theme_name&lt;/font&gt;&lt;/font&gt;" style="text;html=1;strokeColor=none;fillColor=none;align=center;verticalAlign=middle;whiteSpace=wrap;rounded=0;fontSize=12;fontStyle=1;fontColor=#FF0000;" vertex="1" parent="1">
          <mxGeometry x="130" y="920" width="111.25" height="30" as="geometry" />
        </mxCell>
        <mxCell id="Lu7zV6Tx2Fdpjb5Isjd1-118" value="" style="endArrow=classic;html=1;labelBackgroundColor=#FF3333;fontSize=11;fontColor=#FF0000;" edge="1" parent="1">
          <mxGeometry width="50" height="50" relative="1" as="geometry">
            <mxPoint x="492.29" y="640" as="sourcePoint" />
            <mxPoint x="493" y="710" as="targetPoint" />
          </mxGeometry>
        </mxCell>
        <mxCell id="Lu7zV6Tx2Fdpjb5Isjd1-122" value="" style="endArrow=none;html=1;labelBackgroundColor=#FF3333;fontSize=11;fontColor=#FF0000;exitX=0.5;exitY=0;exitDx=0;exitDy=0;" edge="1" parent="1" source="Lu7zV6Tx2Fdpjb5Isjd1-55">
          <mxGeometry width="50" height="50" relative="1" as="geometry">
            <mxPoint x="492" y="595" as="sourcePoint" />
            <mxPoint x="492" y="570" as="targetPoint" />
          </mxGeometry>
        </mxCell>
        <mxCell id="Lu7zV6Tx2Fdpjb5Isjd1-123" value="" style="endArrow=none;dashed=1;html=1;labelBackgroundColor=#FF3333;fontSize=11;fontColor=#FF0000;entryX=0.398;entryY=1.002;entryDx=0;entryDy=0;entryPerimeter=0;" edge="1" parent="1" target="Lu7zV6Tx2Fdpjb5Isjd1-55">
          <mxGeometry width="50" height="50" relative="1" as="geometry">
            <mxPoint x="199.75" y="713.13" as="sourcePoint" />
            <mxPoint x="480" y="660" as="targetPoint" />
            <Array as="points">
              <mxPoint x="200" y="680" />
              <mxPoint x="480" y="680" />
            </Array>
          </mxGeometry>
        </mxCell>
        <mxCell id="Lu7zV6Tx2Fdpjb5Isjd1-124" value="" style="endArrow=none;dashed=1;html=1;labelBackgroundColor=#FF3333;fontSize=11;fontColor=#FF0000;" edge="1" parent="1">
          <mxGeometry width="50" height="50" relative="1" as="geometry">
            <mxPoint x="480" y="600" as="sourcePoint" />
            <mxPoint x="480" y="570" as="targetPoint" />
          </mxGeometry>
        </mxCell>
        <mxCell id="Lu7zV6Tx2Fdpjb5Isjd1-125" value="" style="endArrow=classic;html=1;labelBackgroundColor=#FF3333;fontSize=11;fontColor=#FF0000;labelBorderColor=none;" edge="1" parent="1">
          <mxGeometry width="50" height="50" relative="1" as="geometry">
            <mxPoint x="480" y="580" as="sourcePoint" />
            <mxPoint x="480" y="570" as="targetPoint" />
          </mxGeometry>
        </mxCell>
        <mxCell id="Lu7zV6Tx2Fdpjb5Isjd1-128" value="&lt;font style=&quot;font-size: 15px&quot;&gt;&lt;br&gt;&lt;br&gt;&lt;span style=&quot;color: rgb(255, 51, 51); font-family: helvetica; font-style: normal; font-weight: 700; letter-spacing: normal; text-indent: 0px; text-transform: none; word-spacing: 0px; background-color: rgb(248, 249, 250); display: inline; float: none;&quot;&gt;Constructor&lt;/span&gt;&lt;br&gt;&lt;/font&gt;" style="rounded=1;whiteSpace=wrap;html=1;fontSize=12;fontColor=#FF0000;align=center;verticalAlign=bottom;" vertex="1" parent="1">
          <mxGeometry x="349.75" y="854" width="106" height="30" as="geometry" />
        </mxCell>
      </root>
    </mxGraphModel>
  </diagram>
</mxfile>
